<svg width="430.571240234375px" height="112.4375px" xmlns="http://www.w3.org/2000/svg" viewBox="34.714379882812494 18.78125 430.571240234375 112.4375" style="background: rgb(255, 225, 0);" preserveAspectRatio="xMidYMid"><defs><filter id="editing-extrude-glow"><feFlood flood-color="#000000" result="flood-1"></feFlood><feMorphology operator="erode" radius="1" in="SourceAlpha" result="erode"></feMorphology><feComposite operator="in" in="flood-1" in2="erode" result="comp1"></feComposite><feConvolveMatrix order="4,4" divisor="1" in="comp1" result="convolve" kernelMatrix="0 0 0 0 0 0 0 0 1 1 1 1 0 0 0 0"></feConvolveMatrix><feOffset dx="-4" dy="0" in="convolve" result="extrude"></feOffset><feComposite operator="in" in="flood-1" in2="extrude" result="comp-extrude"></feComposite><feFlood flood-color="#000000" result="flood-2"></feFlood><feComposite operator="in" in="flood-2" in2="SourceAlpha" result="comp2"></feComposite><feMorphology operator="dilate" radius="1" in="comp2" result="dilate"></feMorphology><feOffset dx="-6" dy="0" in="dilate" result="offset"></feOffset><feGaussianBlur in="offset" stdDeviation="5.8" result="blur"></feGaussianBlur><feComponentTransfer in="blur" result="shadow"><feFuncA type="linear" slope="0.8" intercept="-0.2"></feFuncA></feComponentTransfer><feMerge><feMergeNode in="shadow"></feMergeNode><feMergeNode in="comp-extrude"></feMergeNode><feMergeNode in="SourceGraphic"></feMergeNode></feMerge></filter></defs><g filter="url(#editing-extrude-glow)"><g transform="translate(102.73718506097794, 99.15999984741211)"><path d="M28.93-16.06L28.93-16.06Q28.93-13.44 27.84-11.20L27.84-11.20L27.84-11.20Q26.75-8.96 24.90-7.14L24.90-7.14L24.90-7.14Q23.04-5.31 20.58-3.94L20.58-3.94L20.58-3.94Q18.11-2.56 15.39-1.63L15.39-1.63L15.39-1.63Q12.67-0.70 9.82-0.22L9.82-0.22L9.82-0.22Q6.98 0.26 4.35 0.26L4.35 0.26L4.35 0.26Q1.98 0.26-0.06-0.13L-0.06-0.13L-0.06-0.13Q3.01-11.33 4.83-22.69L4.83-22.69L4.83-22.69Q6.66-34.05 8.32-45.57L8.32-45.57L8.32-45.57Q11.65-46.27 15.23-46.82L15.23-46.82L15.23-46.82Q18.82-47.36 22.66-47.36L22.66-47.36L22.66-47.36Q24.26-47.36 26.05-46.98L26.05-46.98L26.05-46.98Q27.84-46.59 29.31-45.57L29.31-45.57L29.31-45.57Q30.78-44.54 31.78-42.88L31.78-42.88L31.78-42.88Q32.77-41.22 32.77-38.66L32.77-38.66L32.77-38.66Q32.77-36.22 31.97-34.11L31.97-34.11L31.97-34.11Q31.17-32 29.92-30.27L29.92-30.27L29.92-30.27Q28.67-28.54 27.07-27.30L27.07-27.30L27.07-27.30Q25.47-26.05 23.81-25.41L23.81-25.41L23.81-25.41Q24.64-24.96 25.54-24.13L25.54-24.13L25.54-24.13Q26.43-23.30 27.20-22.18L27.20-22.18L27.20-22.18Q27.97-21.06 28.45-19.52L28.45-19.52L28.45-19.52Q28.93-17.98 28.93-16.06L28.93-16.06ZM14.27-22.72L14.27-22.72Q14.02-21.18 13.79-20L13.79-20L13.79-20Q13.57-18.82 13.38-17.73L13.38-17.73L13.38-17.73Q13.18-16.64 12.96-15.46L12.96-15.46L12.96-15.46Q12.74-14.27 12.48-12.67L12.48-12.67L12.48-12.67Q13.70-12.80 15.23-13.12L15.23-13.12L15.23-13.12Q16.77-13.44 18.18-14.11L18.18-14.11L18.18-14.11Q19.58-14.78 20.54-15.90L20.54-15.90L20.54-15.90Q21.50-17.02 21.50-18.62L21.50-18.62L21.50-18.62Q21.50-19.78 20.90-20.54L20.90-20.54L20.90-20.54Q20.29-21.31 19.36-21.82L19.36-21.82L19.36-21.82Q18.43-22.34 17.34-22.56L17.34-22.56L17.34-22.56Q16.26-22.78 15.30-22.78L15.30-22.78L15.30-22.78Q14.98-22.78 14.75-22.78L14.75-22.78L14.75-22.78Q14.53-22.78 14.27-22.72L14.27-22.72ZM17.15-38.21L17.15-38.21Q17.02-37.50 16.86-36.54L16.86-36.54L16.86-36.54Q16.70-35.58 16.51-34.53L16.51-34.53L16.51-34.53Q16.32-33.47 16.10-32.45L16.10-32.45L16.10-32.45Q15.87-31.42 15.74-30.66L15.74-30.66L15.74-30.66Q17.15-30.91 18.56-31.36L18.56-31.36L18.56-31.36Q19.97-31.81 21.09-32.35L21.09-32.35L21.09-32.35Q22.21-32.90 22.88-33.54L22.88-33.54L22.88-33.54Q23.55-34.18 23.55-34.94L23.55-34.94L23.55-34.94Q23.55-35.90 22.98-36.51L22.98-36.51L22.98-36.51Q22.40-37.12 21.47-37.50L21.47-37.50L21.47-37.50Q20.54-37.89 19.55-38.05L19.55-38.05L19.55-38.05Q18.56-38.21 17.79-38.21L17.79-38.21L17.15-38.21ZM48.58-3.14L27.90 0.06L36.29-45.44L56.51-47.17L56.51-47.17Q56.06-45.76 55.74-44.29L55.74-44.29L55.74-44.29Q55.42-43.07 55.14-41.76L55.14-41.76L55.14-41.76Q54.85-40.45 54.66-39.42L54.66-39.42L54.66-39.42Q54.02-39.36 52.83-39.33L52.83-39.33L52.83-39.33Q51.65-39.30 50.30-39.26L50.30-39.26L50.30-39.26Q48.96-39.23 47.58-39.23L47.58-39.23L47.58-39.23Q46.21-39.23 45.18-39.23L45.18-39.23L42.94-27.78L42.94-27.78Q44.93-27.90 46.66-27.97L46.66-27.97L46.66-27.97Q48.06-28.03 49.54-28.03L49.54-28.03L49.54-28.03Q51.01-28.03 51.71-28.10L51.71-28.10L51.71-28.10Q51.46-26.30 51.23-24.58L51.23-24.58L51.23-24.58Q51.01-22.85 50.69-21.06L50.69-21.06L50.69-21.06Q50.05-20.99 48.61-20.96L48.61-20.96L48.61-20.96Q47.17-20.93 45.70-20.86L45.70-20.86L45.70-20.86Q44.03-20.80 42.05-20.74L42.05-20.74L39.87-8.96L49.22-10.43L48.58-3.14ZM70.40-3.14L49.73 0.06L58.11-45.44L78.34-47.17L78.34-47.17Q77.89-45.76 77.57-44.29L77.57-44.29L77.57-44.29Q77.25-43.07 76.96-41.76L76.96-41.76L76.96-41.76Q76.67-40.45 76.48-39.42L76.48-39.42L76.48-39.42Q75.84-39.36 74.66-39.33L74.66-39.33L74.66-39.33Q73.47-39.30 72.13-39.26L72.13-39.26L72.13-39.26Q70.78-39.23 69.41-39.23L69.41-39.23L69.41-39.23Q68.03-39.23 67.01-39.23L67.01-39.23L64.77-27.78L64.77-27.78Q66.75-27.90 68.48-27.97L68.48-27.97L68.48-27.97Q69.89-28.03 71.36-28.03L71.36-28.03L71.36-28.03Q72.83-28.03 73.54-28.10L73.54-28.10L73.54-28.10Q73.28-26.30 73.06-24.58L73.06-24.58L73.06-24.58Q72.83-22.85 72.51-21.06L72.51-21.06L72.51-21.06Q71.87-20.99 70.43-20.96L70.43-20.96L70.43-20.96Q68.99-20.93 67.52-20.86L67.52-20.86L67.52-20.86Q65.86-20.80 63.87-20.74L63.87-20.74L61.70-8.96L71.04-10.43L70.40-3.14ZM78.91-1.54L78.91-1.54Q77.12-1.22 75.01-0.77L75.01-0.77L75.01-0.77Q72.90-0.32 71.30 0.06L71.30 0.06L71.30 0.06Q72.06-2.69 72.80-6.11L72.80-6.11L72.80-6.11Q73.54-9.54 74.27-13.31L74.27-13.31L74.27-13.31Q75.01-17.09 75.68-20.96L75.68-20.96L75.68-20.96Q76.35-24.83 76.99-28.42L76.99-28.42L76.99-28.42Q78.34-36.93 79.68-46.02L79.68-46.02L101.12-47.10L99.26-39.23L89.22-39.23L87.23-27.84L87.23-27.84Q89.22-27.90 91.01-27.90L91.01-27.90L91.01-27.90Q92.48-27.90 94.02-27.90L94.02-27.90L94.02-27.90Q95.55-27.90 96.38-27.97L96.38-27.97L96.38-27.97Q96.19-26.18 95.90-24.45L95.90-24.45L95.90-24.45Q95.62-22.72 95.36-20.99L95.36-20.99L95.36-20.99Q94.53-20.99 92.99-21.02L92.99-21.02L92.99-21.02Q91.46-21.06 89.82-21.12L89.82-21.12L89.82-21.12Q88.19-21.18 86.14-21.25L86.14-21.25L83.20-2.37L83.20-2.37Q81.02-1.98 78.91-1.54L78.91-1.54ZM115.01-1.86L105.66 0.32L105.66 0.32Q107.58-8.90 109.31-17.54L109.31-17.54L109.31-17.54Q109.95-21.25 110.69-25.22L110.69-25.22L110.69-25.22Q111.42-29.18 112.06-33.06L112.06-33.06L112.06-33.06Q112.70-36.93 113.22-40.48L113.22-40.48L113.22-40.48Q113.73-44.03 113.98-46.91L113.98-46.91L113.98-46.91Q114.82-46.85 115.39-46.85L115.39-46.85L115.39-46.85Q115.97-46.85 116.74-46.85L116.74-46.85L116.74-46.85Q117.63-46.85 118.91-46.88L118.91-46.88L118.91-46.88Q120.19-46.91 121.47-46.98L121.47-46.98L121.47-46.98Q122.75-47.04 124.22-47.10L124.22-47.10L124.22-47.10Q125.12-42.62 125.82-38.46L125.82-38.46L125.82-38.46Q126.53-34.82 127.26-30.98L127.26-30.98L127.26-30.98Q128-27.14 128.58-24.45L128.58-24.45L128.58-24.45Q128.83-25.73 129.15-27.42L129.15-27.42L129.15-27.42Q129.47-29.12 129.86-30.98L129.86-30.98L129.86-30.98Q130.24-32.83 130.59-34.72L130.59-34.72L130.59-34.72Q130.94-36.61 131.33-38.46L131.33-38.46L131.33-38.46Q132.22-42.62 133.18-47.04L133.18-47.04L140.99-48L140.99-48Q138.82-38.21 137.15-29.44L137.15-29.44L137.15-29.44Q136.38-25.66 135.65-21.79L135.65-21.79L135.65-21.79Q134.91-17.92 134.27-14.37L134.27-14.37L134.27-14.37Q133.63-10.82 133.18-7.78L133.18-7.78L133.18-7.78Q132.74-4.74 132.48-2.69L132.48-2.69L132.48-2.69Q132.29-2.69 130.98-2.40L130.98-2.40L130.98-2.40Q129.66-2.11 127.97-1.73L127.97-1.73L127.97-1.73Q126.27-1.34 124.58-0.96L124.58-0.96L124.58-0.96Q122.88-0.58 122.05-0.26L122.05-0.26L122.05-0.26Q121.66-5.38 121.22-9.98L121.22-9.98L121.22-9.98Q121.02-11.97 120.80-14.05L120.80-14.05L120.80-14.05Q120.58-16.13 120.32-18.05L120.32-18.05L120.32-18.05Q120.06-19.97 119.81-21.63L119.81-21.63L119.81-21.63Q119.55-23.30 119.30-24.51L119.30-24.51L119.30-24.51Q119.10-23.30 118.78-21.70L118.78-21.70L118.78-21.70Q118.46-20.10 118.14-18.30L118.14-18.30L118.14-18.30Q117.82-16.51 117.50-14.56L117.50-14.56L117.50-14.56Q117.18-12.61 116.80-10.82L116.80-10.82L116.80-10.82Q115.97-6.53 115.01-1.86L115.01-1.86ZM174.08-13.76L174.08-13.76Q172.54-10.24 170.66-7.65L170.66-7.65L170.66-7.65Q168.77-5.06 166.69-3.30L166.69-3.30L166.69-3.30Q164.61-1.54 162.50-0.70L162.50-0.70L162.50-0.70Q160.38 0.13 158.40 0.13L158.40 0.13L158.40 0.13Q156.42 0.13 154.78-0.77L154.78-0.77L154.78-0.77Q153.15-1.66 151.94-3.46L151.94-3.46L151.94-3.46Q150.72-5.25 149.98-7.87L149.98-7.87L149.98-7.87Q149.25-10.50 149.25-14.02L149.25-14.02L149.25-14.02Q149.25-20.03 150.91-25.89L150.91-25.89L150.91-25.89Q152.58-31.74 155.58-36.42L155.58-36.42L155.58-36.42Q158.59-41.09 162.72-43.94L162.72-43.94L162.72-43.94Q166.85-46.78 171.84-46.78L171.84-46.78L171.84-46.78Q173.38-46.78 174.78-46.14L174.78-46.14L174.78-46.14Q176.19-45.50 177.22-44.35L177.22-44.35L177.22-44.35Q178.24-43.20 178.85-41.54L178.85-41.54L178.85-41.54Q179.46-39.87 179.46-37.82L179.46-37.82L179.46-37.82Q179.46-37.44 179.46-37.02L179.46-37.02L179.46-37.02Q179.46-36.61 179.39-36.16L179.39-36.16L171.01-33.92L171.01-33.92Q170.24-35.52 169.22-35.52L169.22-35.52L169.22-35.52Q168.19-35.52 167.07-34.34L167.07-34.34L167.07-34.34Q165.95-33.15 164.86-31.26L164.86-31.26L164.86-31.26Q163.78-29.38 162.75-27.04L162.75-27.04L162.75-27.04Q161.73-24.70 160.96-22.34L160.96-22.34L160.96-22.34Q160.19-19.97 159.71-17.82L159.71-17.82L159.71-17.82Q159.23-15.68 159.23-14.34L159.23-14.34L159.23-14.34Q159.23-12.29 159.78-11.46L159.78-11.46L159.78-11.46Q160.32-10.62 161.22-10.62L161.22-10.62L161.22-10.62Q161.92-10.62 162.82-11.17L162.82-11.17L162.82-11.17Q163.71-11.71 164.48-12.58L164.48-12.58L164.48-12.58Q165.25-13.44 165.89-14.53L165.89-14.53L165.89-14.53Q166.53-15.62 166.78-16.70L166.78-16.70L174.08-13.76ZM183.68-1.92L173.82 0.13L173.82 0.13Q175.49-8.70 177.09-17.22L177.09-17.22L177.09-17.22Q177.66-20.80 178.37-24.67L178.37-24.67L178.37-24.67Q179.07-28.54 179.71-32.32L179.71-32.32L179.71-32.32Q180.35-36.10 180.93-39.65L180.93-39.65L180.93-39.65Q181.50-43.20 181.95-46.14L181.95-46.14L192.32-46.85L192.32-46.85Q191.23-42.37 190.18-37.50L190.18-37.50L190.18-37.50Q189.12-32.64 188.22-28.03L188.22-28.03L194.56-28.74L194.56-28.74Q195.46-33.28 196.16-37.54L196.16-37.54L196.16-37.54Q196.86-41.79 198.02-46.34L198.02-46.34L198.02-46.34Q199.49-46.59 201.28-46.75L201.28-46.75L201.28-46.75Q203.07-46.91 204.61-47.04L204.61-47.04L204.61-47.04Q206.14-47.17 207.20-47.26L207.20-47.26L207.20-47.26Q208.26-47.36 208.26-47.36L208.26-47.36L208.26-47.36Q207.36-44.48 206.56-41.06L206.56-41.06L206.56-41.06Q205.76-37.63 204.99-33.95L204.99-33.95L204.99-33.95Q204.22-30.27 203.52-26.50L203.52-26.50L203.52-26.50Q202.82-22.72 202.24-19.33L202.24-19.33L202.24-19.33Q200.83-11.20 199.62-2.69L199.62-2.69L189.63-1.54L189.63-1.54Q190.46-5.38 191.10-9.02L191.10-9.02L191.10-9.02Q191.74-12.10 192.42-15.42L192.42-15.42L192.42-15.42Q193.09-18.75 193.47-21.12L193.47-21.12L187.26-20.54L187.26-20.54Q186.82-18.11 186.21-14.91L186.21-14.91L186.21-14.91Q185.60-11.71 185.09-8.83L185.09-8.83L185.09-8.83Q184.38-5.38 183.68-1.92L183.68-1.92ZM222.72-3.14L202.05 0.06L210.43-45.44L230.66-47.17L230.66-47.17Q230.21-45.76 229.89-44.29L229.89-44.29L229.89-44.29Q229.57-43.07 229.28-41.76L229.28-41.76L229.28-41.76Q228.99-40.45 228.80-39.42L228.80-39.42L228.80-39.42Q228.16-39.36 226.98-39.33L226.98-39.33L226.98-39.33Q225.79-39.30 224.45-39.26L224.45-39.26L224.45-39.26Q223.10-39.23 221.73-39.23L221.73-39.23L221.73-39.23Q220.35-39.23 219.33-39.23L219.33-39.23L217.09-27.78L217.09-27.78Q219.07-27.90 220.80-27.97L220.80-27.97L220.80-27.97Q222.21-28.03 223.68-28.03L223.68-28.03L223.68-28.03Q225.15-28.03 225.86-28.10L225.86-28.10L225.86-28.10Q225.60-26.30 225.38-24.58L225.38-24.58L225.38-24.58Q225.15-22.85 224.83-21.06L224.83-21.06L224.83-21.06Q224.19-20.99 222.75-20.96L222.75-20.96L222.75-20.96Q221.31-20.93 219.84-20.86L219.84-20.86L219.84-20.86Q218.18-20.80 216.19-20.74L216.19-20.74L214.02-8.96L223.36-10.43L222.72-3.14ZM244.54-3.14L223.87 0.06L232.26-45.44L252.48-47.17L252.48-47.17Q252.03-45.76 251.71-44.29L251.71-44.29L251.71-44.29Q251.39-43.07 251.10-41.76L251.10-41.76L251.10-41.76Q250.82-40.45 250.62-39.42L250.62-39.42L250.62-39.42Q249.98-39.36 248.80-39.33L248.80-39.33L248.80-39.33Q247.62-39.30 246.27-39.26L246.27-39.26L246.27-39.26Q244.93-39.23 243.55-39.23L243.55-39.23L243.55-39.23Q242.18-39.23 241.15-39.23L241.15-39.23L238.91-27.78L238.91-27.78Q240.90-27.90 242.62-27.97L242.62-27.97L242.62-27.97Q244.03-28.03 245.50-28.03L245.50-28.03L245.50-28.03Q246.98-28.03 247.68-28.10L247.68-28.10L247.68-28.10Q247.42-26.30 247.20-24.58L247.20-24.58L247.20-24.58Q246.98-22.85 246.66-21.06L246.66-21.06L246.66-21.06Q246.02-20.99 244.58-20.96L244.58-20.96L244.58-20.96Q243.14-20.93 241.66-20.86L241.66-20.86L241.66-20.86Q240.00-20.80 238.02-20.74L238.02-20.74L235.84-8.96L245.18-10.43L244.54-3.14ZM273.54-15.81L273.54-15.81Q273.54-12.22 272.16-9.31L272.16-9.31L272.16-9.31Q270.78-6.40 268.45-4.29L268.45-4.29L268.45-4.29Q266.11-2.18 262.94-1.02L262.94-1.02L262.94-1.02Q259.78 0.13 256.13 0.13L256.13 0.13L256.13 0.13Q253.57 0.13 251.01-1.25L251.01-1.25L251.01-1.25Q248.45-2.62 246.08-5.63L246.08-5.63L250.82-14.91L250.82-14.91Q251.26-14.08 252.16-13.22L252.16-13.22L252.16-13.22Q253.06-12.35 254.18-11.71L254.18-11.71L254.18-11.71Q255.30-11.07 256.42-10.66L256.42-10.66L256.42-10.66Q257.54-10.24 258.43-10.24L258.43-10.24L258.43-10.24Q259.20-10.24 260.03-10.50L260.03-10.50L260.03-10.50Q260.86-10.75 261.57-11.26L261.57-11.26L261.57-11.26Q262.27-11.78 262.69-12.45L262.69-12.45L262.69-12.45Q263.10-13.12 263.10-14.02L263.10-14.02L263.10-14.02Q263.10-15.55 262.11-16.86L262.11-16.86L262.11-16.86Q261.12-18.18 259.65-19.36L259.65-19.36L259.65-19.36Q258.18-20.54 256.45-21.76L256.45-21.76L256.45-21.76Q254.72-22.98 253.28-24.32L253.28-24.32L253.28-24.32Q251.84-25.66 250.82-27.33L250.82-27.33L250.82-27.33Q249.79-28.99 249.79-31.04L249.79-31.04L249.79-31.04Q249.79-34.37 251.78-37.25L251.78-37.25L251.78-37.25Q253.76-40.13 256.74-42.21L256.74-42.21L256.74-42.21Q259.71-44.29 263.23-45.50L263.23-45.50L263.23-45.50Q266.75-46.72 269.89-46.72L269.89-46.72L269.89-46.72Q271.62-46.72 273.15-46.30L273.15-46.30L273.15-46.30Q274.69-45.89 275.81-44.96L275.81-44.96L275.81-44.96Q276.93-44.03 277.60-42.62L277.60-42.62L277.60-42.62Q278.27-41.22 278.27-39.10L278.27-39.10L278.27-39.10Q278.27-38.21 278.11-37.31L278.11-37.31L278.11-37.31Q277.95-36.42 277.82-35.39L277.82-35.39L268.54-32.70L268.54-32.70Q268.67-33.22 268.77-33.73L268.77-33.73L268.77-33.73Q268.86-34.24 268.86-34.75L268.86-34.75L268.86-34.75Q268.86-36.67 268.19-37.54L268.19-37.54L268.19-37.54Q267.52-38.40 266.43-38.40L266.43-38.40L266.43-38.40Q265.92-38.40 265.18-38.02L265.18-38.02L265.18-38.02Q264.45-37.63 263.71-37.02L263.71-37.02L263.71-37.02Q262.98-36.42 262.46-35.58L262.46-35.58L262.46-35.58Q261.95-34.75 261.95-33.79L261.95-33.79L261.95-33.79Q261.95-32.26 262.82-31.23L262.82-31.23L262.82-31.23Q263.68-30.21 264.96-29.31L264.96-29.31L264.96-29.31Q266.24-28.42 267.74-27.49L267.74-27.49L267.74-27.49Q269.25-26.56 270.53-25.09L270.53-25.09L270.53-25.09Q271.81-23.62 272.67-21.41L272.67-21.41L272.67-21.41Q273.54-19.20 273.54-15.81L273.54-15.81ZM293.89-3.14L273.22 0.06L281.60-45.44L301.82-47.17L301.82-47.17Q301.38-45.76 301.06-44.29L301.06-44.29L301.06-44.29Q300.74-43.07 300.45-41.76L300.45-41.76L300.45-41.76Q300.16-40.45 299.97-39.42L299.97-39.42L299.97-39.42Q299.33-39.36 298.14-39.33L298.14-39.33L298.14-39.33Q296.96-39.30 295.62-39.26L295.62-39.26L295.62-39.26Q294.27-39.23 292.90-39.23L292.90-39.23L292.90-39.23Q291.52-39.23 290.50-39.23L290.50-39.23L288.26-27.78L288.26-27.78Q290.24-27.90 291.97-27.97L291.97-27.97L291.97-27.97Q293.38-28.03 294.85-28.03L294.85-28.03L294.85-28.03Q296.32-28.03 297.02-28.10L297.02-28.10L297.02-28.10Q296.77-26.30 296.54-24.58L296.54-24.58L296.54-24.58Q296.32-22.85 296.00-21.06L296.00-21.06L296.00-21.06Q295.36-20.99 293.92-20.96L293.92-20.96L293.92-20.96Q292.48-20.93 291.01-20.86L291.01-20.86L291.01-20.86Q289.34-20.80 287.36-20.74L287.36-20.74L285.18-8.96L294.53-10.43L293.89-3.14Z" fill="#ff0101"></path></g></g><style>text {
  font-size: 64px;
  font-family: Arial Black;
  dominant-baseline: central;
  text-anchor: middle;
}</style></svg>