<svg width="453.03253173828125px" height="121.40498046875px" xmlns="http://www.w3.org/2000/svg" viewBox="23.483734130859375 14.297509765625001 453.03253173828125 121.40498046875" style="background: rgb(255, 225, 0);" preserveAspectRatio="xMidYMid"><defs><filter id="editing-extrude-glow"><feFlood flood-color="#c81a15" result="flood-1"></feFlood><feMorphology operator="erode" radius="1" in="SourceAlpha" result="erode"></feMorphology><feComposite operator="in" in="flood-1" in2="erode" result="comp1"></feComposite><feConvolveMatrix order="4,4" divisor="1" in="comp1" result="convolve" kernelMatrix="0 0 0 0 0 0 0 0 1 1 1 1 0 0 0 0"></feConvolveMatrix><feOffset dx="-4" dy="0" in="convolve" result="extrude"></feOffset><feComposite operator="in" in="flood-1" in2="extrude" result="comp-extrude"></feComposite><feFlood flood-color="#a9551f" result="flood-2"></feFlood><feComposite operator="in" in="flood-2" in2="SourceAlpha" result="comp2"></feComposite><feMorphology operator="dilate" radius="1" in="comp2" result="dilate"></feMorphology><feOffset dx="-6" dy="0" in="dilate" result="offset"></feOffset><feGaussianBlur in="offset" stdDeviation="5.8" result="blur"></feGaussianBlur><feComponentTransfer in="blur" result="shadow"><feFuncA type="linear" slope="0.8" intercept="-0.2"></feFuncA></feComponentTransfer><feMerge><feMergeNode in="shadow"></feMergeNode><feMergeNode in="comp-extrude"></feMergeNode><feMergeNode in="SourceGraphic"></feMergeNode></feMerge></filter></defs><g filter="url(#editing-extrude-glow)"><g transform="translate(90.57500913739204, 104.76000022888184)"><path d="M0.45-0.32L0.45-0.32L8.51-42.24L8.51-42.24Q16.06-42.88 20.93-42.88L20.93-42.88L20.93-42.88Q25.79-42.88 28.93-42.46L28.93-42.46L28.93-42.46Q32.06-42.05 34.18-40.96L34.18-40.96L34.18-40.96Q38.40-38.91 38.40-33.28L38.40-33.28L38.40-33.28Q38.40-30.02 35.58-27.26L35.58-27.26L35.58-27.26Q32.96-24.77 30.08-24.19L30.08-24.19L30.08-24.19Q33.15-23.68 35.33-21.38L35.33-21.38L35.33-21.38Q37.63-18.94 37.63-15.17L37.63-15.17L37.63-15.17Q37.63-7.87 32.19-3.62L32.19-3.62L32.19-3.62Q26.75 0.64 16.06 0.64L16.06 0.64L16.06 0.64Q8.70 0.64 0.45-0.32ZM17.86-20.61L14.66-4.03L14.66-4.03Q15.23-3.97 15.36-3.97L15.36-3.97L15.94-3.97L15.94-3.97Q21.18-3.97 23.42-7.42L23.42-7.42L23.42-7.42Q25.09-10.11 25.09-15.04L25.09-15.04L25.09-15.04Q25.09-17.66 23.39-19.07L23.39-19.07L23.39-19.07Q21.70-20.48 17.86-20.61L17.86-20.61ZM27.58-33.22L27.58-33.22L27.58-33.22Q27.58-38.53 22.46-38.53L22.46-38.53L21.89-38.53L21.89-38.53Q21.63-38.53 21.25-38.46L21.25-38.46L18.69-24.96L19.33-24.96L19.33-24.96Q27.58-25.15 27.58-33.22ZM62.40-2.69L62.40-2.69L62.40-2.69Q59.33 1.28 51.71 1.28L51.71 1.28L51.71 1.28Q47.74 1.28 44.86-1.12L44.86-1.12L44.86-1.12Q41.98-3.52 41.98-6.98L41.98-6.98L41.98-6.98Q41.98-8.90 42.18-9.86L42.18-9.86L46.46-32.64L59.46-33.92L54.78-9.22L54.78-9.22Q54.53-7.81 54.53-6.98L54.53-6.98L54.53-6.98Q54.53-3.26 56.77-3.26L56.77-3.26L56.77-3.26Q59.26-3.26 61.06-6.66L61.06-6.66L61.06-6.66Q61.63-7.74 61.89-9.15L61.89-9.15L66.43-32.64L79.04-33.92L74.30-8.96L74.30-8.96Q74.11-8 74.11-6.98L74.11-6.98L74.11-6.98Q74.11-5.95 74.69-4.83L74.69-4.83L74.69-4.83Q75.26-3.71 77.12-3.46L77.12-3.46L77.12-3.46Q76.74-1.92 75.39-0.90L75.39-0.90L75.39-0.90Q72.58 1.28 69.54 1.28L69.54 1.28L69.54 1.28Q66.50 1.28 64.70 0.19L64.70 0.19L64.70 0.19Q62.91-0.90 62.40-2.69ZM102.53-17.98L102.53-17.98L102.53-17.98Q104.83-22.08 104.83-26.24L104.83-26.24L104.83-26.24Q104.83-28.99 102.85-28.99L102.85-28.99L102.85-28.99Q101.31-28.99 99.71-26.37L99.71-26.37L99.71-26.37Q98.05-23.74 97.54-20.35L97.54-20.35L94.21 0L80.96 1.28L87.49-32.64L98.05-33.92L96.90-27.46L96.90-27.46Q100.03-33.92 107.07-33.92L107.07-33.92L107.07-33.92Q110.78-33.92 112.80-32L112.80-32L112.80-32Q114.82-30.08 114.82-26.14L114.82-26.14L114.82-26.14Q114.82-22.21 112.22-19.71L112.22-19.71L112.22-19.71Q109.63-17.22 105.22-17.22L105.22-17.22L105.22-17.22Q103.30-17.22 102.53-17.98ZM120.38-26.75L120.38-26.75L120.38-26.75Q122.56-29.82 125.86-31.87L125.86-31.87L125.86-31.87Q129.15-33.92 133.18-33.92L133.18-33.92L133.18-33.92Q137.22-33.92 139.14-32.64L139.14-32.64L151.68-33.92L147.33-9.34L147.33-9.34Q145.09 3.20 140.35 8.13L140.35 8.13L140.35 8.13Q135.81 12.80 126.98 12.80L126.98 12.80L126.98 12.80Q120.26 12.80 116.42 10.69L116.42 10.69L116.42 10.69Q112.58 8.58 112.58 5.06L112.58 5.06L112.58 5.06Q112.58 2.43 114.56 0.93L114.56 0.93L114.56 0.93Q116.54-0.58 119.62-0.58L119.62-0.58L119.62-0.58Q122.30-0.58 124.35 0.64L124.35 0.64L124.35 0.64Q125.57 1.28 126.14 2.18L126.14 2.18L126.14 2.18Q124.67 3.46 124.67 5.57L124.67 5.57L124.67 5.57Q124.67 8.32 127.23 8.32L127.23 8.32L127.23 8.32Q131.52 8.32 133.95-1.79L133.95-1.79L133.95-1.79Q134.66-4.54 135.23-7.30L135.23-7.30L135.23-7.30Q132.35-3.78 125.82-3.78L125.82-3.78L125.82-3.78Q121.28-3.78 118.66-5.95L118.66-5.95L118.66-5.95Q116.03-8.13 116.03-13.25L116.03-13.25L116.03-13.25Q116.03-16.45 117.12-20.06L117.12-20.06L117.12-20.06Q118.21-23.68 120.38-26.75ZM128.70-13.06L128.70-13.06L128.70-13.06Q128.70-8.70 130.94-8.70L130.94-8.70L130.94-8.70Q132.48-8.70 133.95-10.37L133.95-10.37L133.95-10.37Q135.10-11.71 135.55-13.70L135.55-13.70L138.82-30.14L138.82-30.14Q138.50-30.21 138.18-30.34L138.18-30.34L138.18-30.34Q137.54-30.59 136.70-30.59L136.70-30.59L136.70-30.59Q132.80-30.59 130.50-24.19L130.50-24.19L130.50-24.19Q128.70-19.20 128.70-13.06ZM180.10-10.82L180.10-10.82L180.10-10.82Q181.70-9.73 181.70-7.33L181.70-7.33L181.70-7.33Q181.70-4.93 180.48-3.39L180.48-3.39L180.48-3.39Q179.26-1.86 177.28-0.83L177.28-0.83L177.28-0.83Q173.18 1.28 168.77 1.28L168.77 1.28L168.77 1.28Q164.35 1.28 161.76 0.32L161.76 0.32L161.76 0.32Q159.17-0.64 157.44-2.43L157.44-2.43L157.44-2.43Q154.05-5.82 154.05-12.03L154.05-12.03L154.05-12.03Q154.05-21.70 159.30-27.58L159.30-27.58L159.30-27.58Q164.93-33.92 174.72-33.92L174.72-33.92L174.72-33.92Q180.80-33.92 183.81-31.36L183.81-31.36L183.81-31.36Q186.05-29.44 186.05-26.30L186.05-26.30L186.05-26.30Q186.05-15.04 166.59-15.04L166.59-15.04L166.59-15.04Q166.34-13.38 166.34-11.97L166.34-11.97L166.34-11.97Q166.34-9.02 167.65-7.90L167.65-7.90L167.65-7.90Q168.96-6.78 171.39-6.78L171.39-6.78L171.39-6.78Q173.82-6.78 176.42-7.90L176.42-7.90L176.42-7.90Q179.01-9.02 180.10-10.82ZM167.04-17.79L167.04-17.79L167.04-17.79Q171.58-17.79 174.21-20.61L174.21-20.61L174.21-20.61Q176.83-23.30 176.83-27.58L176.83-27.58L176.83-27.58Q176.83-29.06 176.29-29.86L176.29-29.86L176.29-29.86Q175.74-30.66 174.66-30.66L174.66-30.66L174.66-30.66Q173.57-30.66 172.64-30.24L172.64-30.24L172.64-30.24Q171.71-29.82 170.75-28.42L170.75-28.42L170.75-28.42Q168.38-25.22 167.04-17.79ZM208.26-17.98L208.26-17.98L208.26-17.98Q210.56-22.08 210.56-26.24L210.56-26.24L210.56-26.24Q210.56-28.99 208.58-28.99L208.58-28.99L208.58-28.99Q207.04-28.99 205.44-26.37L205.44-26.37L205.44-26.37Q203.78-23.74 203.26-20.35L203.26-20.35L199.94 0L186.69 1.28L193.22-32.64L203.78-33.92L202.62-27.46L202.62-27.46Q205.76-33.92 212.80-33.92L212.80-33.92L212.80-33.92Q216.51-33.92 218.53-32L218.53-32L218.53-32Q220.54-30.08 220.54-26.14L220.54-26.14L220.54-26.14Q220.54-22.21 217.95-19.71L217.95-19.71L217.95-19.71Q215.36-17.22 210.94-17.22L210.94-17.22L210.94-17.22Q209.02-17.22 208.26-17.98ZM220.74-3.07L220.74-3.07L228.67-44.80L241.66-46.08L239.68-36.29L239.68-36.29Q238.98-33.28 238.08-31.17L238.08-31.17L238.08-31.17Q239.49-32.96 242.56-33.66L242.56-33.66L242.56-33.66Q243.46-33.92 244.54-33.92L244.54-33.92L244.54-33.92Q250.50-33.92 253.76-30.30L253.76-30.30L253.76-30.30Q257.02-26.69 257.02-19.71L257.02-19.71L257.02-19.71Q257.02-10.62 251.84-4.93L251.84-4.93L251.84-4.93Q246.27 1.28 236.16 1.28L236.16 1.28L236.16 1.28Q229.18 1.28 223.94-1.02L223.94-1.02L223.94-1.02Q222.08-1.86 220.74-3.07ZM236.99-22.40L233.60-3.65L233.60-3.65Q234.94-2.50 236.61-2.50L236.61-2.50L236.61-2.50Q238.27-2.50 239.23-3.14L239.23-3.14L239.23-3.14Q240.19-3.78 240.90-5.06L240.90-5.06L240.90-5.06Q242.82-8.51 244.35-19.07L244.35-19.07L244.35-19.07Q244.80-22.08 244.80-25.09L244.80-25.09L244.80-25.09Q244.80-28.10 244.13-29.06L244.13-29.06L244.13-29.06Q243.46-30.02 242.18-30.02L242.18-30.02L242.18-30.02Q238.27-30.02 236.99-22.40L236.99-22.40ZM274.82 1.28L274.82 1.28L274.82 1.28Q260.74 1.28 260.74-11.97L260.74-11.97L260.74-11.97Q260.74-21.38 265.92-27.46L265.92-27.46L265.92-27.46Q271.42-33.92 280.96-33.92L280.96-33.92L280.96-33.92Q287.87-33.92 291.39-30.72L291.39-30.72L291.39-30.72Q294.91-27.52 294.91-20.80L294.91-20.80L294.91-20.80Q294.91-10.56 289.41-4.61L289.41-4.61L289.41-4.61Q284.03 1.28 274.82 1.28ZM276.48-26.56L276.48-26.56L276.48-26.56Q275.71-24.83 275.10-22.24L275.10-22.24L275.10-22.24Q274.50-19.65 273.73-15.55L273.73-15.55L273.73-15.55Q272.96-11.46 272.96-6.40L272.96-6.40L272.96-6.40Q272.96-4.74 273.50-3.65L273.50-3.65L273.50-3.65Q274.05-2.56 275.52-2.56L275.52-2.56L275.52-2.56Q276.99-2.56 277.92-3.26L277.92-3.26L277.92-3.26Q278.85-3.97 279.55-5.63L279.55-5.63L279.55-5.63Q280.83-8.58 281.86-14.05L281.86-14.05L281.86-14.05Q282.88-19.52 282.98-21.89L282.98-21.89L282.98-21.89Q283.07-24.26 283.07-26.02L283.07-26.02L283.07-26.02Q283.07-27.78 282.56-28.93L282.56-28.93L282.56-28.93Q282.05-30.08 280.61-30.08L280.61-30.08L280.61-30.08Q279.17-30.08 278.21-29.18L278.21-29.18L278.21-29.18Q277.25-28.29 276.48-26.56ZM314.05-3.52L314.05-3.52L314.05-3.52Q312.06 1.28 305.73 1.28L305.73 1.28L305.73 1.28Q302.46 1.28 300.42-0.96L300.42-0.96L300.42-0.96Q298.69-2.94 298.69-4.93L298.69-4.93L298.69-4.93Q298.69-10.11 301.06-20.22L301.06-20.22L303.42-32.64L316.42-33.92L312.51-13.70L312.51-13.70Q311.42-8.96 311.42-7.30L311.42-7.30L311.42-7.30Q311.42-3.65 314.05-3.52ZM304.58-41.54L304.58-41.54L304.58-41.54Q304.58-44.03 306.66-45.38L306.66-45.38L306.66-45.38Q308.74-46.72 311.74-46.72L311.74-46.72L311.74-46.72Q314.75-46.72 316.58-45.38L316.58-45.38L316.58-45.38Q318.40-44.03 318.40-41.54L318.40-41.54L318.40-41.54Q318.40-39.04 316.38-37.76L316.38-37.76L316.38-37.76Q314.37-36.48 311.36-36.48L311.36-36.48L311.36-36.48Q308.35-36.48 306.46-37.76L306.46-37.76L306.46-37.76Q304.58-39.04 304.58-41.54Z" fill="#ff6501"></path></g></g><style>text {
  font-size: 64px;
  font-family: Arial Black;
  dominant-baseline: central;
  text-anchor: middle;
}</style></svg>