<svg width="324.385009765625px" height="158.635009765625px" xmlns="http://www.w3.org/2000/svg" viewBox="87.8074951171875 -4.3175048828125 324.385009765625 158.635009765625" style="background: rgb(255, 225, 0);" preserveAspectRatio="xMidYMid"><defs><filter id="editing-extrude-glow"><feFlood flood-color="#000000" result="flood-1"></feFlood><feMorphology operator="erode" radius="1" in="SourceAlpha" result="erode"></feMorphology><feComposite operator="in" in="flood-1" in2="erode" result="comp1"></feComposite><feConvolveMatrix order="4,4" divisor="1" in="comp1" result="convolve" kernelMatrix="0 0 0 0 0 0 0 0 1 1 1 1 0 0 0 0"></feConvolveMatrix><feOffset dx="-4" dy="0" in="convolve" result="extrude"></feOffset><feComposite operator="in" in="flood-1" in2="extrude" result="comp-extrude"></feComposite><feFlood flood-color="#000000" result="flood-2"></feFlood><feComposite operator="in" in="flood-2" in2="SourceAlpha" result="comp2"></feComposite><feMorphology operator="dilate" radius="1" in="comp2" result="dilate"></feMorphology><feOffset dx="-6" dy="0" in="dilate" result="offset"></feOffset><feGaussianBlur in="offset" stdDeviation="5.8" result="blur"></feGaussianBlur><feComponentTransfer in="blur" result="shadow"><feFuncA type="linear" slope="0.8" intercept="-0.2"></feFuncA></feComponentTransfer><feMerge><feMergeNode in="shadow"></feMergeNode><feMergeNode in="comp-extrude"></feMergeNode><feMergeNode in="SourceGraphic"></feMergeNode></feMerge></filter></defs><g filter="url(#editing-extrude-glow)"><g transform="translate(137.86867141723633, 102.66499900817871)"><path d="M2.36-35.92L2.36-35.92L2.36-35.92Q2.15-35.99 1.87-36.33L1.87-36.33L1.87-36.33Q1.59-36.68 1.39-37.09L1.39-37.09L1.39-37.09Q1.18-37.51 1.04-37.93L1.04-37.93L1.04-37.93Q0.90-38.34 0.97-38.55L0.97-38.55L0.97-38.55Q1.04-38.83 1.39-39.24L1.39-39.24L1.39-39.24Q1.73-39.66 2.15-40.11L2.15-40.11L2.15-40.11Q2.57-40.56 2.98-40.91L2.98-40.91L2.98-40.91Q3.40-41.25 3.67-41.25L3.67-41.25L3.67-41.25Q4.51-41.46 6.27-41.91L6.27-41.91L6.27-41.91Q8.04-42.36 10.26-42.92L10.26-42.92L10.26-42.92Q12.48-43.47 14.94-44.03L14.94-44.03L14.94-44.03Q17.40-44.58 19.66-45.10L19.66-45.10L19.66-45.10Q21.91-45.62 23.68-46.04L23.68-46.04L23.68-46.04Q25.45-46.46 26.28-46.59L26.28-46.59L26.28-46.59Q26.63-46.66 27.42-46.73L27.42-46.73L27.42-46.73Q28.22-46.80 29.12-46.87L29.12-46.87L29.12-46.87Q30.02-46.94 30.82-47.01L30.82-47.01L30.82-47.01Q31.62-47.08 31.89-47.08L31.89-47.08L31.89-47.08Q31.89-45.76 31.58-45.17L31.58-45.17L31.58-45.17Q31.27-44.58 30.68-44.38L30.68-44.38L30.68-44.38Q30.09-44.17 29.33-44.17L29.33-44.17L29.33-44.17Q28.57-44.17 27.60-43.96L27.60-43.96L27.60-43.96Q26.90-43.75 25.31-43.33L25.31-43.33L25.31-43.33Q23.71-42.92 21.77-42.40L21.77-42.40L21.77-42.40Q19.83-41.88 17.65-41.32L17.65-41.32L17.65-41.32Q15.46-40.77 13.49-40.21L13.49-40.21L13.49-40.21Q11.51-39.66 9.95-39.21L9.95-39.21L9.95-39.21Q8.39-38.76 7.63-38.55L7.63-38.55L7.63-38.55Q6.59-37.37 6.45-36.40L6.45-36.40L6.45-36.40Q6.31-35.43 6.31-34.11L6.31-34.11L6.31-34.11Q6.31-31.13 6.69-28.46L6.69-28.46L6.69-28.46Q7.07-25.79 7.63-22.60L7.63-22.60L7.63-22.60Q7.77-22.60 8.01-22.57L8.01-22.57L8.01-22.57Q8.25-22.53 8.39-22.53L8.39-22.53L8.39-22.53Q10.26-22.53 12.03-22.98L12.03-22.98L12.03-22.98Q13.80-23.44 15.57-23.99L15.57-23.99L15.57-23.99Q17.33-24.54 19.17-25.00L19.17-25.00L19.17-25.00Q21.01-25.45 22.95-25.45L22.95-25.45L22.95-25.45Q23.23-25.45 23.89-25.41L23.89-25.41L23.89-25.41Q24.54-25.38 25.17-25.20L25.17-25.20L25.17-25.20Q25.79-25.03 26.14-24.75L26.14-24.75L26.14-24.75Q26.49-24.48 26.28-23.99L26.28-23.99L8.39-18.58L8.39 0.42L8.39 0.42Q7.14 0.42 6.45 0.10L6.45 0.10L6.45 0.10Q5.75-0.21 5.48-0.80L5.48-0.80L5.48-0.80Q5.20-1.39 5.13-2.18L5.13-2.18L5.13-2.18Q5.06-2.98 4.99-4.02L4.99-4.02L4.99-4.02Q4.85-5.20 4.65-7.70L4.65-7.70L4.65-7.70Q4.44-10.19 4.19-13.35L4.19-13.35L4.19-13.35Q3.95-16.50 3.67-19.97L3.67-19.97L3.67-19.97Q3.40-23.44 3.12-26.59L3.12-26.59L3.12-26.59Q2.84-29.75 2.63-32.24L2.63-32.24L2.63-32.24Q2.43-34.74 2.36-35.92ZM29.54-47.91L29.54-48.74L29.54-48.74Q29.54-49.58 30.13-50.10L30.13-50.10L30.13-50.10Q30.72-50.62 31.55-50.62L31.55-50.62L31.55-50.62Q31.62-50.62 31.89-50.62L31.89-50.62L31.89-50.62Q32.17-50.62 32.24-50.62L32.24-50.62L32.24-50.62Q32.59-44.79 32.87-39.56L32.87-39.56L32.87-39.56Q33.14-34.32 33.32-29.26L33.32-29.26L33.32-29.26Q33.49-24.20 33.56-19.17L33.56-19.17L33.56-19.17Q33.63-14.14 33.63-8.67L33.63-8.67L33.63-8.67Q33.63-7.90 33.73-6.59L33.73-6.59L33.73-6.59Q33.84-5.27 33.94-4.02L33.94-4.02L33.94-4.02Q34.04-2.77 34.15-1.77L34.15-1.77L34.15-1.77Q34.25-0.76 34.25-0.69L34.25-0.69L31.27-0.14L31.27-0.14Q31.13-2.98 30.99-6.69L30.99-6.69L30.99-6.69Q30.85-10.40 30.75-14.60L30.75-14.60L30.75-14.60Q30.65-18.79 30.54-23.26L30.54-23.26L30.54-23.26Q30.44-27.73 30.27-32.10L30.27-32.10L30.27-32.10Q30.09-36.47 29.92-40.53L29.92-40.53L29.92-40.53Q29.75-44.58 29.54-47.91L29.54-47.91ZM39.17-5.27L39.17-5.27L39.17-5.27Q39.52-6.10 40.25-6.31L40.25-6.31L40.25-6.31Q40.98-6.52 41.81-5.27L41.81-5.27L41.81-5.27Q41.81-5.13 42.47-4.89L42.47-4.89L42.47-4.89Q43.13-4.65 44.13-4.33L44.13-4.33L44.13-4.33Q45.14-4.02 46.49-3.71L46.49-3.71L46.49-3.71Q47.84-3.40 49.16-3.15L49.16-3.15L49.16-3.15Q50.48-2.91 51.72-2.74L51.72-2.74L51.72-2.74Q52.97-2.57 53.87-2.57L53.87-2.57L53.87-2.57Q56.23-2.57 58.21-3.57L58.21-3.57L58.21-3.57Q60.18-4.58 61.60-6.17L61.60-6.17L61.60-6.17Q63.03-7.77 63.79-9.81L63.79-9.81L63.79-9.81Q64.55-11.86 64.55-14.01L64.55-14.01L64.55-14.01Q64.55-14.63 64.34-16.19L64.34-16.19L64.34-16.19Q64.14-17.75 63.65-19.31L63.65-19.31L63.65-19.31Q63.17-20.87 62.37-22.12L62.37-22.12L62.37-22.12Q61.57-23.37 60.46-23.37L60.46-23.37L60.46-23.37Q53.25-22.53 48.64-22.71L48.64-22.71L48.64-22.71Q44.03-22.88 41.32-23.78L41.32-23.78L41.32-23.78Q38.62-24.68 37.55-26.24L37.55-26.24L37.55-26.24Q36.47-27.80 36.40-29.81L36.40-29.81L36.40-29.81Q36.40-32.31 37.65-34.63L37.65-34.63L37.65-34.63Q38.90-36.96 40.84-38.76L40.84-38.76L40.84-38.76Q42.78-40.56 45.17-41.64L45.17-41.64L45.17-41.64Q47.56-42.71 49.92-42.71L49.92-42.71L49.92-42.71Q51.86-42.71 53.98-42.23L53.98-42.23L53.98-42.23Q56.09-41.74 57.90-40.73L57.90-40.73L57.90-40.73Q59.70-39.73 60.84-38.10L60.84-38.10L60.84-38.10Q61.99-36.47 61.99-34.18L61.99-34.18L61.99-34.18Q60.32-34.18 58.94-35.12L58.94-35.12L58.94-35.12Q57.55-36.05 56.16-37.09L56.16-37.09L56.16-37.09Q54.78-38.13 53.25-39.07L53.25-39.07L53.25-39.07Q51.72-40.01 49.71-40.01L49.71-40.01L49.71-40.01Q48.05-40.01 46.35-39.17L46.35-39.17L46.35-39.17Q44.65-38.34 43.30-37.03L43.30-37.03L43.30-37.03Q41.95-35.71 41.08-34.08L41.08-34.08L41.08-34.08Q40.21-32.45 40.21-30.72L40.21-30.72L40.21-30.72Q40.21-30.02 40.25-29.23L40.25-29.23L40.25-29.23Q40.28-28.43 40.56-27.70L40.56-27.70L40.56-27.70Q40.84-26.97 41.43-26.49L41.43-26.49L41.43-26.49Q42.02-26.00 43.13-26.00L43.13-26.00L61.78-26.00L61.78-26.00Q62.96-26.00 63.82-25.27L63.82-25.27L63.82-25.27Q64.69-24.54 65.28-23.44L65.28-23.44L65.28-23.44Q65.87-22.33 66.25-20.94L66.25-20.94L66.25-20.94Q66.63-19.55 66.87-18.24L66.87-18.24L66.87-18.24Q67.12-16.92 67.19-15.77L67.19-15.77L67.19-15.77Q67.26-14.63 67.26-14.01L67.26-14.01L67.26-14.01Q67.26-11.30 66.49-8.91L66.49-8.91L66.49-8.91Q65.73-6.52 64.21-4.61L64.21-4.61L64.21-4.61Q62.68-2.70 60.39-1.49L60.39-1.49L60.39-1.49Q58.10-0.28 55.12 0L55.12 0L55.12 0Q53.67 0.14 51.34-0.07L51.34-0.07L51.34-0.07Q49.02-0.28 46.66-0.87L46.66-0.87L46.66-0.87Q44.31-1.46 42.23-2.53L42.23-2.53L42.23-2.53Q40.15-3.61 39.17-5.27ZM71-13.94L71-13.94L71-13.94Q71-18.93 71.03-23.37L71.03-23.37L71.03-23.37Q71.07-27.80 71.24-32.14L71.24-32.14L71.24-32.14Q71.42-36.47 71.69-40.94L71.69-40.94L71.69-40.94Q71.97-45.42 72.46-50.62L72.46-50.62L74.47-50.62L74.47-23.99L89.58-23.99L89.58-23.99Q89.51-26.49 89.51-29.36L89.51-29.36L89.51-29.36Q89.51-32.24 89.44-35.19L89.44-35.19L89.44-35.19Q89.37-38.13 89.34-40.94L89.34-40.94L89.34-40.94Q89.30-43.75 89.30-46.25L89.30-46.25L89.30-46.25Q89.30-48.74 89.30-50.62L89.30-50.62L89.30-50.62Q89.30-52.49 89.30-53.53L89.30-53.53L89.30-53.53Q89.51-53.53 90.03-53.42L90.03-53.42L90.03-53.42Q90.55-53.32 91.07-53.15L91.07-53.15L91.07-53.15Q91.59-52.97 92.01-52.66L92.01-52.66L92.01-52.66Q92.42-52.35 92.42-51.86L92.42-51.86L92.42 0.07L90.28-0.35L90.28-0.35Q90.14-0.35 90.07-1.25L90.07-1.25L90.07-1.25Q90.00-2.15 89.96-3.50L89.96-3.50L89.96-3.50Q89.93-4.85 89.89-6.62L89.89-6.62L89.89-6.62Q89.86-8.39 89.82-10.09L89.82-10.09L89.82-10.09Q89.79-11.79 89.76-13.31L89.76-13.31L89.76-13.31Q89.72-14.84 89.72-15.88L89.72-15.88L89.72-15.88Q89.72-16.85 89.72-18.51L89.72-18.51L89.72-18.51Q89.72-20.18 89.65-22.33L89.65-22.33L74.47-19.62L74.33 0.14L71 0.14L71 0.14Q71 0.07 71-0.83L71-0.83L71-0.83Q71-1.73 71-3.09L71-3.09L71-3.09Q71-4.44 71-6.07L71-6.07L71-6.07Q71-7.70 71-9.22L71-9.22L71-9.22Q71-10.75 71-12.00L71-12.00L71-12.00Q71-13.24 71-13.94ZM116.48 0.69L116.48-22.60L116.48-22.60Q115.44-24.13 113.68-26.35L113.68-26.35L113.68-26.35Q111.91-28.57 109.90-31.17L109.90-31.17L109.90-31.17Q107.89-33.77 105.74-36.54L105.74-36.54L105.74-36.54Q103.59-39.31 101.75-41.91L101.75-41.91L101.75-41.91Q99.91-44.51 98.53-46.77L98.53-46.77L98.53-46.77Q97.14-49.02 96.52-50.62L96.52-50.62L97.90-51.86L97.90-51.86Q100.47-49.09 102.37-46.77L102.37-46.77L102.37-46.77Q104.28-44.44 105.81-42.40L105.81-42.40L105.81-42.40Q107.33-40.35 108.58-38.48L108.58-38.48L108.58-38.48Q109.83-36.61 111.18-34.70L111.18-34.70L111.18-34.70Q112.53-32.80 114.13-30.82L114.13-30.82L114.13-30.82Q115.72-28.84 117.87-26.63L117.87-26.63L117.87-26.63Q118.29-28.57 118.67-30.96L118.67-30.96L118.67-30.96Q119.05-33.35 119.47-35.92L119.47-35.92L119.47-35.92Q119.88-38.48 120.37-41.15L120.37-41.15L120.37-41.15Q120.85-43.82 121.48-46.28L121.48-46.28L121.48-46.28Q122.10-48.74 122.83-50.89L122.83-50.89L122.83-50.89Q123.56-53.04 124.53-54.57L124.53-54.57L124.53-54.57Q124.60-54.64 124.84-54.64L124.84-54.64L124.84-54.64Q125.08-54.64 125.22-54.64L125.22-54.64L125.22-54.64Q125.43-54.64 125.81-54.57L125.81-54.57L125.81-54.57Q126.19-54.50 126.54-54.32L126.54-54.32L126.54-54.32Q126.88-54.15 127.09-53.87L127.09-53.87L127.09-53.87Q127.30-53.60 127.16-53.25L127.16-53.25L127.16-53.25Q126.40-51.66 125.60-48.95L125.60-48.95L125.60-48.95Q124.80-46.25 124.08-42.88L124.08-42.88L124.08-42.88Q123.35-39.52 122.72-35.60L122.72-35.60L122.72-35.60Q122.10-31.69 121.58-27.67L121.58-27.67L121.58-27.67Q121.06-23.64 120.64-19.66L120.64-19.66L120.64-19.66Q120.23-15.67 120.02-12.20L120.02-12.20L120.02-12.20Q119.81-8.74 119.85-5.89L119.85-5.89L119.85-5.89Q119.88-3.05 120.16-1.32L120.16-1.32L120.16-1.32Q120.02-0.55 119.92-0.17L119.92-0.17L119.92-0.17Q119.81 0.21 119.47 0.42L119.47 0.42L119.47 0.42Q119.12 0.62 118.43 0.66L118.43 0.66L118.43 0.66Q117.73 0.69 116.48 0.69L116.48 0.69ZM131.11-5.27L131.11-34.60L131.11-34.60Q130.84-34.67 130.46-35.01L130.46-35.01L130.46-35.01Q130.07-35.36 129.76-35.78L129.76-35.78L129.76-35.78Q129.45-36.19 129.24-36.61L129.24-36.61L129.24-36.61Q129.03-37.03 129.03-37.30L129.03-37.30L129.03-37.30Q129.24-39.59 130.73-40.73L130.73-40.73L130.73-40.73Q132.22-41.88 134.17-42.29L134.17-42.29L134.17-42.29Q136.11-42.71 138.19-42.71L138.19-42.71L138.19-42.71Q140.27-42.71 141.72-42.71L141.72-42.71L141.72-42.71Q144.15-42.71 146.19-42.47L146.19-42.47L146.19-42.47Q148.24-42.23 149.77-41.36L149.77-41.36L149.77-41.36Q151.29-40.49 152.19-38.90L152.19-38.90L152.19-38.90Q153.09-37.30 153.09-34.53L153.09-34.53L153.09-34.53Q153.09-33.14 152.99-32.07L152.99-32.07L152.99-32.07Q152.89-30.99 152.61-29.99L152.61-29.99L152.61-29.99Q152.33-28.98 151.78-27.84L151.78-27.84L151.78-27.84Q151.22-26.69 150.32-25.24L150.32-25.24L150.32-25.24Q153.16-24.34 155.04-23.54L155.04-23.54L155.04-23.54Q156.91-22.74 157.95-21.60L157.95-21.60L157.95-21.60Q158.99-20.45 159.37-18.82L159.37-18.82L159.37-18.82Q159.75-17.20 159.75-14.63L159.75-14.63L159.75-14.63Q159.75-11.58 158.43-8.88L158.43-8.88L158.43-8.88Q157.12-6.17 154.93-4.16L154.93-4.16L154.93-4.16Q152.75-2.15 149.83-1.01L149.83-1.01L149.83-1.01Q146.92 0.14 143.66 0.14L143.66 0.14L143.66 0.14Q142.97 0.14 141.79-0.10L141.79-0.10L141.79-0.10Q140.61-0.35 139.23-0.73L139.23-0.73L139.23-0.73Q137.84-1.11 136.38-1.63L136.38-1.63L136.38-1.63Q134.93-2.15 133.75-2.77L133.75-2.77L133.75-2.77Q132.57-3.40 131.84-4.02L131.84-4.02L131.84-4.02Q131.11-4.65 131.11-5.27L131.11-5.27ZM135.69-18.58L135.69-18.58L135.69-18.58Q135.83-16.92 135.55-15.12L135.55-15.12L135.55-15.12Q135.27-13.31 135.07-11.65L135.07-11.65L135.07-11.65Q134.86-9.98 134.93-8.49L134.93-8.49L134.93-8.49Q135.00-7.00 135.76-5.82L135.76-5.82L135.76-5.82Q136.52-4.65 138.26-3.78L138.26-3.78L138.26-3.78Q139.99-2.91 143.04-2.57L143.04-2.57L143.04-2.57Q145.61-2.57 148.14-3.50L148.14-3.50L148.14-3.50Q150.67-4.44 152.64-6.07L152.64-6.07L152.64-6.07Q154.62-7.70 155.87-9.95L155.87-9.95L155.87-9.95Q157.12-12.20 157.12-14.91L157.12-14.91L157.12-14.91Q157.12-16.71 156.49-17.96L156.49-17.96L156.49-17.96Q155.87-19.21 154.83-20.00L154.83-20.00L154.83-20.00Q153.79-20.80 152.37-21.15L152.37-21.15L152.37-21.15Q150.94-21.49 149.35-21.49L149.35-21.49L149.35-21.49Q147.34-21.49 145.74-21.39L145.74-21.39L145.74-21.39Q144.15-21.29 142.59-20.97L142.59-20.97L142.59-20.97Q141.03-20.66 139.40-20.07L139.40-20.07L139.40-20.07Q137.77-19.48 135.69-18.58ZM134.30-25.79L134.30-25.79L134.30-25.79Q134.30-25.24 134.37-24.65L134.37-24.65L134.37-24.65Q134.44-24.06 134.62-23.61L134.62-23.61L134.62-23.61Q134.79-23.16 135.21-22.85L135.21-22.85L135.21-22.85Q135.62-22.53 136.31-22.53L136.31-22.53L136.31-22.53Q138.67-22.53 141.17-23.44L141.17-23.44L141.17-23.44Q143.66-24.34 145.71-25.93L145.71-25.93L145.71-25.93Q147.75-27.53 149.11-29.71L149.11-29.71L149.11-29.71Q150.46-31.89 150.46-34.60L150.46-34.60L150.46-34.60Q150.46-34.88 150.32-35.40L150.32-35.40L150.32-35.40Q150.18-35.92 149.70-36.47L149.70-36.47L149.70-36.47Q149.21-37.03 148.24-37.55L148.24-37.55L148.24-37.55Q147.27-38.07 145.64-38.41L145.64-38.41L145.64-38.41Q144.01-38.76 141.58-38.83L141.58-38.83L141.58-38.83Q139.16-38.90 135.69-38.55L135.69-38.55L135.69-38.55Q135.55-38.41 135.38-37.65L135.38-37.65L135.38-37.65Q135.21-36.89 135.03-35.74L135.03-35.74L135.03-35.74Q134.86-34.60 134.75-33.25L134.75-33.25L134.75-33.25Q134.65-31.89 134.55-30.54L134.55-30.54L134.55-30.54Q134.44-29.19 134.37-27.94L134.37-27.94L134.37-27.94Q134.30-26.69 134.30-25.79ZM162.94-23.02L162.94-23.02L162.94-23.02Q162.94-25.31 163.25-27.87L163.25-27.87L163.25-27.87Q163.56-30.44 164.29-32.90L164.29-32.90L164.29-32.90Q165.02-35.36 166.16-37.61L166.16-37.61L166.16-37.61Q167.31-39.87 168.94-41.57L168.94-41.57L168.94-41.57Q170.57-43.27 172.75-44.27L172.75-44.27L172.75-44.27Q174.93-45.28 177.71-45.28L177.71-45.28L177.71-45.28Q180.13-45.28 182.01-43.92L182.01-43.92L182.01-43.92Q183.88-42.57 185.27-40.39L185.27-40.39L185.27-40.39Q186.65-38.20 187.55-35.43L187.55-35.43L187.55-35.43Q188.46-32.66 189.04-29.85L189.04-29.85L189.04-29.85Q189.63-27.04 189.84-24.44L189.84-24.44L189.84-24.44Q190.05-21.84 190.05-19.97L190.05-19.97L190.05-19.97Q189.77-15.88 188.87-12.45L188.87-12.45L188.87-12.45Q187.97-9.01 186.41-6.41L186.41-6.41L186.41-6.41Q184.85-3.81 182.56-2.15L182.56-2.15L182.56-2.15Q180.27-0.49 177.01 0.07L177.01 0.07L177.01 0.07Q173.89 0.07 171.68-1.04L171.68-1.04L171.68-1.04Q169.46-2.15 167.86-3.95L167.86-3.95L167.86-3.95Q166.27-5.75 165.30-8.11L165.30-8.11L165.30-8.11Q164.33-10.47 163.81-13.04L163.81-13.04L163.81-13.04Q163.29-15.60 163.11-18.20L163.11-18.20L163.11-18.20Q162.94-20.80 162.94-23.02ZM165.57-23.02L165.57-23.02L165.57-23.02Q165.57-21.36 165.64-19.28L165.64-19.28L165.64-19.28Q165.71-17.20 166.02-15.08L166.02-15.08L166.02-15.08Q166.34-12.97 166.96-10.92L166.96-10.92L166.96-10.92Q167.58-8.88 168.66-7.31L168.66-7.31L168.66-7.31Q169.73-5.75 171.36-4.78L171.36-4.78L171.36-4.78Q172.99-3.81 175.28-3.81L175.28-3.81L175.28-3.81Q178.61-3.61 180.76-4.65L180.76-4.65L180.76-4.65Q182.91-5.69 184.23-7.83L184.23-7.83L184.23-7.83Q185.54-9.98 186.24-13.04L186.24-13.04L186.24-13.04Q186.93-16.09 187.35-19.97L187.35-19.97L187.35-19.97Q187.35-21.49 187.21-23.78L187.21-23.78L187.21-23.78Q187.07-26.07 186.69-28.57L186.69-28.57L186.69-28.57Q186.31-31.06 185.65-33.59L185.65-33.59L185.65-33.59Q184.99-36.12 183.91-38.17L183.91-38.17L183.91-38.17Q182.84-40.21 181.35-41.46L181.35-41.46L181.35-41.46Q179.86-42.71 177.78-42.71L177.78-42.71L177.78-42.71Q175.63-42.71 173.89-41.71L173.89-41.71L173.89-41.71Q172.16-40.70 170.81-39.07L170.81-39.07L170.81-39.07Q169.46-37.44 168.45-35.36L168.45-35.36L168.45-35.36Q167.45-33.28 166.82-31.10L166.82-31.10L166.82-31.10Q166.20-28.91 165.89-26.80L165.89-26.80L165.89-26.80Q165.57-24.68 165.57-23.02ZM212.58 0.69L212.58-22.60L212.58-22.60Q211.54-24.13 209.78-26.35L209.78-26.35L209.78-26.35Q208.01-28.57 206.00-31.17L206.00-31.17L206.00-31.17Q203.99-33.77 201.84-36.54L201.84-36.54L201.84-36.54Q199.69-39.31 197.85-41.91L197.85-41.91L197.85-41.91Q196.01-44.51 194.63-46.77L194.63-46.77L194.63-46.77Q193.24-49.02 192.62-50.62L192.62-50.62L194.00-51.86L194.00-51.86Q196.57-49.09 198.47-46.77L198.47-46.77L198.47-46.77Q200.38-44.44 201.91-42.40L201.91-42.40L201.91-42.40Q203.43-40.35 204.68-38.48L204.68-38.48L204.68-38.48Q205.93-36.61 207.28-34.70L207.28-34.70L207.28-34.70Q208.63-32.80 210.23-30.82L210.23-30.82L210.23-30.82Q211.82-28.84 213.97-26.63L213.97-26.63L213.97-26.63Q214.39-28.57 214.77-30.96L214.77-30.96L214.77-30.96Q215.15-33.35 215.57-35.92L215.57-35.92L215.57-35.92Q215.98-38.48 216.47-41.15L216.47-41.15L216.47-41.15Q216.95-43.82 217.58-46.28L217.58-46.28L217.58-46.28Q218.20-48.74 218.93-50.89L218.93-50.89L218.93-50.89Q219.66-53.04 220.63-54.57L220.63-54.57L220.63-54.57Q220.70-54.64 220.94-54.64L220.94-54.64L220.94-54.64Q221.18-54.64 221.32-54.64L221.32-54.64L221.32-54.64Q221.53-54.64 221.91-54.57L221.91-54.57L221.91-54.57Q222.29-54.50 222.64-54.32L222.64-54.32L222.64-54.32Q222.98-54.15 223.19-53.87L223.19-53.87L223.19-53.87Q223.40-53.60 223.26-53.25L223.26-53.25L223.26-53.25Q222.50-51.66 221.70-48.95L221.70-48.95L221.70-48.95Q220.90-46.25 220.18-42.88L220.18-42.88L220.18-42.88Q219.45-39.52 218.82-35.60L218.82-35.60L218.82-35.60Q218.20-31.69 217.68-27.67L217.68-27.67L217.68-27.67Q217.16-23.64 216.74-19.66L216.74-19.66L216.74-19.66Q216.33-15.67 216.12-12.20L216.12-12.20L216.12-12.20Q215.91-8.74 215.95-5.89L215.95-5.89L215.95-5.89Q215.98-3.05 216.26-1.32L216.26-1.32L216.26-1.32Q216.12-0.55 216.02-0.17L216.02-0.17L216.02-0.17Q215.91 0.21 215.57 0.42L215.57 0.42L215.57 0.42Q215.22 0.62 214.53 0.66L214.53 0.66L214.53 0.66Q213.83 0.69 212.58 0.69L212.58 0.69Z" fill="#0168ff"></path></g></g><style>text {
  font-size: 64px;
  font-family: Arial Black;
  dominant-baseline: central;
  text-anchor: middle;
}</style></svg>